<mxfile host="65bd71144e">
    <diagram id="dl3PtlTl44txQiSGxQ-4" name="Page-1">
        <mxGraphModel dx="1386" dy="787" grid="1" gridSize="10" guides="1" tooltips="1" connect="1" arrows="1" fold="1" page="1" pageScale="1" pageWidth="850" pageHeight="1100" math="0" shadow="0">
            <root>
                <mxCell id="0"/>
                <mxCell id="1" parent="0"/>
                <mxCell id="2" value="WeBoard" style="shape=umlFrame;whiteSpace=wrap;html=1;width=120;height=30;boundedLbl=1;verticalAlign=middle;align=left;spacingLeft=5;" parent="1" vertex="1">
                    <mxGeometry x="200" y="220" width="400" height="580" as="geometry"/>
                </mxCell>
                <mxCell id="3" value="User" style="shape=umlActor;verticalLabelPosition=bottom;verticalAlign=top;html=1;" parent="1" vertex="1">
                    <mxGeometry x="100" y="410" width="30" height="60" as="geometry"/>
                </mxCell>
                <mxCell id="5" value="" style="shape=ellipse;container=1;horizontal=1;horizontalStack=0;resizeParent=1;resizeParentMax=0;resizeLast=0;html=1;dashed=0;collapsible=0;" parent="1" vertex="1">
                    <mxGeometry x="253" y="320" width="105" height="70" as="geometry"/>
                </mxCell>
                <mxCell id="6" value="PickName" style="html=1;strokeColor=none;fillColor=none;align=center;verticalAlign=middle;rotatable=0;" parent="5" vertex="1">
                    <mxGeometry y="26.25" width="105" height="17.5" as="geometry"/>
                </mxCell>
                <mxCell id="10" style="edgeStyle=none;html=1;exitX=0;exitY=0.5;exitDx=0;exitDy=0;endArrow=none;endFill=0;" parent="1" source="6" edge="1">
                    <mxGeometry relative="1" as="geometry">
                        <mxPoint x="140" y="440" as="targetPoint"/>
                    </mxGeometry>
                </mxCell>
                <mxCell id="11" value="" style="shape=ellipse;container=1;horizontal=1;horizontalStack=0;resizeParent=1;resizeParentMax=0;resizeLast=0;html=1;dashed=0;collapsible=0;" parent="1" vertex="1">
                    <mxGeometry x="253" y="430" width="105" height="70" as="geometry"/>
                </mxCell>
                <mxCell id="12" value="PlayGame" style="html=1;strokeColor=none;fillColor=none;align=center;verticalAlign=middle;rotatable=0;" parent="11" vertex="1">
                    <mxGeometry y="26.25" width="105" height="17.5" as="geometry"/>
                </mxCell>
                <mxCell id="13" style="edgeStyle=none;html=1;exitX=0;exitY=0.75;exitDx=0;exitDy=0;endArrow=none;endFill=0;" parent="1" source="12" edge="1">
                    <mxGeometry relative="1" as="geometry">
                        <mxPoint x="140" y="444" as="targetPoint"/>
                    </mxGeometry>
                </mxCell>
                <mxCell id="14" value="" style="shape=ellipse;container=1;horizontal=1;horizontalStack=0;resizeParent=1;resizeParentMax=0;resizeLast=0;html=1;dashed=0;collapsible=0;" parent="1" vertex="1">
                    <mxGeometry x="450" y="320" width="105" height="70" as="geometry"/>
                </mxCell>
                <mxCell id="15" value="ProtectName" style="html=1;strokeColor=none;fillColor=none;align=center;verticalAlign=middle;rotatable=0;" parent="14" vertex="1">
                    <mxGeometry y="26.25" width="105" height="17.5" as="geometry"/>
                </mxCell>
                <mxCell id="17" value="&amp;lt;&amp;lt;extend&amp;gt;&amp;gt;" style="html=1;verticalAlign=bottom;labelBackgroundColor=none;endArrow=open;endFill=0;dashed=1;exitX=0;exitY=0.5;exitDx=0;exitDy=0;entryX=1;entryY=0.5;entryDx=0;entryDy=0;" parent="1" source="15" target="6" edge="1">
                    <mxGeometry x="0.087" width="160" relative="1" as="geometry">
                        <mxPoint x="490" y="329" as="sourcePoint"/>
                        <mxPoint x="540" y="180" as="targetPoint"/>
                        <mxPoint as="offset"/>
                    </mxGeometry>
                </mxCell>
                <mxCell id="20" value="" style="shape=ellipse;container=1;horizontal=1;horizontalStack=0;resizeParent=1;resizeParentMax=0;resizeLast=0;html=1;dashed=0;collapsible=0;" parent="1" vertex="1">
                    <mxGeometry x="253" y="530" width="105" height="70" as="geometry"/>
                </mxCell>
                <mxCell id="21" value="CheckRanking" style="html=1;strokeColor=none;fillColor=none;align=center;verticalAlign=middle;rotatable=0;" parent="20" vertex="1">
                    <mxGeometry y="26.25" width="105" height="17.5" as="geometry"/>
                </mxCell>
                <mxCell id="22" style="edgeStyle=none;html=1;exitX=0;exitY=0.5;exitDx=0;exitDy=0;endArrow=none;endFill=0;" parent="1" source="21" edge="1">
                    <mxGeometry relative="1" as="geometry">
                        <mxPoint x="140" y="450" as="targetPoint"/>
                    </mxGeometry>
                </mxCell>
                <mxCell id="23" value="" style="shape=ellipse;container=1;horizontal=1;horizontalStack=0;resizeParent=1;resizeParentMax=0;resizeLast=0;html=1;dashed=0;collapsible=0;" parent="1" vertex="1">
                    <mxGeometry x="253" y="650" width="105" height="70" as="geometry"/>
                </mxCell>
                <mxCell id="24" value="useUtility" style="html=1;strokeColor=none;fillColor=none;align=center;verticalAlign=middle;rotatable=0;" parent="23" vertex="1">
                    <mxGeometry y="26.25" width="105" height="17.5" as="geometry"/>
                </mxCell>
                <mxCell id="25" style="edgeStyle=none;html=1;exitX=0;exitY=0.5;exitDx=0;exitDy=0;endArrow=none;endFill=0;" parent="1" source="24" edge="1">
                    <mxGeometry relative="1" as="geometry">
                        <mxPoint x="140" y="460" as="targetPoint"/>
                    </mxGeometry>
                </mxCell>
                <mxCell id="28" value="" style="shape=ellipse;container=1;horizontal=1;horizontalStack=0;resizeParent=1;resizeParentMax=0;resizeLast=0;html=1;dashed=0;collapsible=0;" vertex="1" parent="1">
                    <mxGeometry x="460" y="430" width="105" height="70" as="geometry"/>
                </mxCell>
                <mxCell id="29" value="PublicGame" style="html=1;strokeColor=none;fillColor=none;align=center;verticalAlign=middle;rotatable=0;" vertex="1" parent="28">
                    <mxGeometry y="26.25" width="105" height="17.5" as="geometry"/>
                </mxCell>
                <mxCell id="30" value="" style="shape=ellipse;container=1;horizontal=1;horizontalStack=0;resizeParent=1;resizeParentMax=0;resizeLast=0;html=1;dashed=0;collapsible=0;" vertex="1" parent="1">
                    <mxGeometry x="460" y="530" width="105" height="70" as="geometry"/>
                </mxCell>
                <mxCell id="31" value="PrivateGame" style="html=1;strokeColor=none;fillColor=none;align=center;verticalAlign=middle;rotatable=0;" vertex="1" parent="30">
                    <mxGeometry y="26.25" width="105" height="17.5" as="geometry"/>
                </mxCell>
                <mxCell id="33" value="&amp;lt;&amp;lt;include&amp;gt;&amp;gt;" style="html=1;verticalAlign=bottom;labelBackgroundColor=none;endArrow=open;endFill=0;dashed=1;exitX=0;exitY=0.5;exitDx=0;exitDy=0;entryX=1;entryY=0.5;entryDx=0;entryDy=0;" edge="1" parent="1" source="29" target="11">
                    <mxGeometry width="160" relative="1" as="geometry">
                        <mxPoint x="720" y="620" as="sourcePoint"/>
                        <mxPoint x="880" y="620" as="targetPoint"/>
                    </mxGeometry>
                </mxCell>
                <mxCell id="34" value="&amp;lt;&amp;lt;include&amp;gt;&amp;gt;" style="html=1;verticalAlign=bottom;labelBackgroundColor=none;endArrow=open;endFill=0;dashed=1;exitX=0;exitY=0.5;exitDx=0;exitDy=0;entryX=1;entryY=1;entryDx=0;entryDy=0;" edge="1" parent="1" source="31" target="12">
                    <mxGeometry x="-0.2233" y="1" width="160" relative="1" as="geometry">
                        <mxPoint x="450" y="690" as="sourcePoint"/>
                        <mxPoint x="610" y="690" as="targetPoint"/>
                        <mxPoint as="offset"/>
                    </mxGeometry>
                </mxCell>
            </root>
        </mxGraphModel>
    </diagram>
</mxfile>